# xmcd
#
# Track frame offsets:
#	150
#	15791
#	31221
#	50314
#	67078
#	82345
#	96398
#	113204
#	131564
#	146042
#	166714
#	186378
#	202274
#	216759
#
# Disc length: 3088 seconds
#
# Revision: 1
# Processed by: cddbd v1.5.2PL0 Copyright (c) Steve Scherf et al.
# Submitted via: audiograbber 1.83.01
#
DISCID=cd0c0e0e
DTITLE=MACIEL MELO - MINHA METADE
DYEAR=2012
DGENRE=FORRÓ
TTITLE0=MACIEL MELO E ZECA PAGODINHO - QUI NEM GILÓ
TTITLE1=MACIEL MELO E ELBA RAMALHO - A POEIRA E A ESTRADA
TTITLE2=MACIEL MELO E RAIMUNDO FAGNER - CHORO DE POEIRA
TTITLE3=MACIEL MELO E DOMINGUINHOS - MINHA METADE
TTITLE4=MACIEL MELO - TIRO DE BACAMARTE
TTITLE5=MACIEL MELO E MARCELO MELO - DA CIDADE AO SERTÃO
TTITLE6=MACIEL MELO E ZÉ RAMALHO - DESASSOSSEGO
TTITLE7=MACIEL MELO E GERALDO AZEVEDO - DONA DA MINHA CABEÇA
TTITLE8=MACIEL MELO - NOSSO XOTE
TTITLE9=MACIEL MELO E QUINTETO VIOLADO - MATA BRANCA
TTITLE10=MACIEL MELO, ALCEU VALENÇA E RENATO PHAELANTE - ASSUM PRETO
TTITLE11=MACIEL MELO - PANO DO DIA UM
TTITLE12=MACIEL MELO - O SOL DAS MANHÃS
TTITLE13=MACIEL MELO - SERES
EXTD=
EXTT0=
EXTT1=
EXTT2=
EXTT3=
EXTT4=
EXTT5=
EXTT6=
EXTT7=
EXTT8=
EXTT9=
EXTT10=
EXTT11=
EXTT12=
EXTT13=
PLAYORDER=
